PathFileType        4      (X/Y/Z)      C:\Users\pc\Desktop\IMUTRC\Sujet_06\Sujet_06_velo_80.trc         
DataRate	CameraRate	NumFrames	NumMarkers	Units	OrigDataRate	OrigDataStartFrame	OrigNumFrames
60.0	60.0	4	64	mm	60.0	238	948
Frame#	Time	pHipOrigin			pRightASI			pLeftASI			pRightCSI			pLeftCSI			pRightIschialTub			pLeftIschialTub			pSacrum			pL5SpinalProcess			pL3SpinalProcess			pT12SpinalProcess			pIJ			pT4SpinalProcess			pT8SpinalProcess			pPX			pC7SpinalProcess			pTopOfHead			pRightAuricularis			pLeftAuricularis			pBackOfHead			pRightAcromion			pLeftAcromion			pRightArmLatEpicondyle			pRightArmMedEpicondyle			pLeftArmLatEpicondyle			pLeftArmMedEpicondyle			pRightUlnarStyloid			pRightRadialStyloid			pRightOlecranon			pLeftUlnarStyloid			pLeftRadialStyloid			pLeftOlecranon			pRightTopOfHand			pRightPinky			pRightBallHand			pLeftTopOfHand			pLeftPinky			pLeftBallHand			pRightGreaterTrochanter			pRightKneeLatEpicondyle			pRightKneeMedEpicondyle			pRightPatella			pLeftGreaterTrochanter			pLeftKneeLatEpicondyle			pLeftKneeMedEpicondyle			pLeftPatella			pRightTibialTub			pRightLatMalleolus			pRightMedMalleolus			pLeftTibialTub			pLeftLatMalleolus			pLeftMedMalleolus			pRightHeelFoot			pRightFirstMetatarsal			pRightFifthMetatarsal			pRightPivotFoot			pRightHeelCenter			pRightToe			pLeftHeelFoot			pLeftFirstMetatarsal			pLeftFifthMetatarsal			pLeftPivotFoot			pLeftHeelCenter			pLeftToe			
		X1	Y1	Z1	X2	Y2	Z2	X3	Y3	Z3	X4	Y4	Z4	X5	Y5	Z5	X6	Y6	Z6	X7	Y7	Z7	X8	Y8	Z8	X9	Y9	Z9	X10	Y10	Z10	X11	Y11	Z11	X12	Y12	Z12	X13	Y13	Z13	X14	Y14	Z14	X15	Y15	Z15	X16	Y16	Z16	X17	Y17	Z17	X18	Y18	Z18	X19	Y19	Z19	X20	Y20	Z20	X21	Y21	Z21	X22	Y22	Z22	X23	Y23	Z23	X24	Y24	Z24	X25	Y25	Z25	X26	Y26	Z26	X27	Y27	Z27	X28	Y28	Z28	X29	Y29	Z29	X30	Y30	Z30	X31	Y31	Z31	X32	Y32	Z32	X33	Y33	Z33	X34	Y34	Z34	X35	Y35	Z35	X36	Y36	Z36	X37	Y37	Z37	X38	Y38	Z38	X39	Y39	Z39	X40	Y40	Z40	X41	Y41	Z41	X42	Y42	Z42	X43	Y43	Z43	X44	Y44	Z44	X45	Y45	Z45	X46	Y46	Z46	X47	Y47	Z47	X48	Y48	Z48	X49	Y49	Z49	X50	Y50	Z50	X51	Y51	Z51	X52	Y52	Z52	X53	Y53	Z53	X54	Y54	Z54	X55	Y55	Z55	X56	Y56	Z56	X57	Y57	Z57	X58	Y58	Z58	X59	Y59	Z59	X60	Y60	Z60	X61	Y61	Z61	X62	Y62	Z62	X63	Y63	Z63	X64	Y64	Z64	
238	3.95	0.0	1250.06673	7.654451098075493E-14	33.759940000000014	1328.97549	129.4808800000001	82.97622999999999	1340.49997	-95.44977999999993	0.5423300000000131	1389.17394	106.83867000000008	42.03043999999999	1398.93584	-82.84064999999991	-58.571459999999995	1199.35903	34.437850000000076	-37.96298000000001	1204.23999	-60.469609999999925	-56.67331	1269.99729	-11.388889999999915	-25.89618	1360.83728	8.649861835033389E-14	19.79498	1470.52318	13.964950000000089	63.99474	1569.76926	26.57409000000009	308.17806	1652.60991	78.77319000000006	178.15485	1730.16285	54.232830000000085	118.90548	1662.37182	40.539040000000085	231.03185	1556.48222	60.605190000000064	221.81227	1776.39634	64.26590000000009	502.46717	1796.19132	71.99408000000005	401.05178	1785.7515	147.64888000000005	397.1199	1779.51473	3.11839000000006	391.56103	1838.89968	73.07874000000007	190.89956000000004	1739.38243	240.92935000000008	265.74087	1744.67013	-110.77054999999991	344.64963000000006	1482.99673	243.77657000000005	338.8196	1478.79369	181.13765000000006	430.74425	1503.87637	-133.81950999999998	401.18736	1476.35321	-85.41670999999995	513.04257	1293.99532	257.06361	545.03994	1324.63687	229.67603000000003	323.36325	1468.35387	228.18463000000006	632.21921	1350.93979	-122.97293999999998	638.72715	1367.07406	-73.89223	410.81369	1485.16604	-136.12439999999998	696.6207	1311.75657	258.82617999999997	622.72847	1280.03037	273.0623	558.46256	1290.19902	248.65752000000003	788.81651	1350.93979	-29.963640000000016	735.12601	1336.70367	-89.89092	666.11473	1341.17788	-97.07677	7.728180000000018	1223.49264	144.80166000000008	362.00414	1087.91057	126.90482000000003	369.18999	1100.24853	54.50399000000002	377.86724	1133.33056	96.12769000000003	40.53903999999998	1231.62756	-145.07281999999992	247.43728999999996	913.95876	-124.46433999999998	243.23424	909.07781	-50.97885999999997	277.94325	936.32981	-81.62040999999998	397.25548	1053.74388	95.58536000000002	199.30565000000004	738.92231	128.12506000000002	204.72893	734.99043	69.28244000000001	277.94325	866.7762	-87.72159999999997	65.89288999999998	562.12328	-127.44714999999998	67.24870999999999	559.27606	-68.46894999999999	150.36052	661.91169	93.82280000000003	308.5848	631.81247	105.8896	287.02725	641.84554	178.56159	318.48229	633.03271	147.78446	185.88302	657.70864	104.94053000000001	389.93405	620.69474	170.83340999999996	-15.998680000000011	522.80448	-89.21300999999997	105.75402	423.96515	-50.843279999999986	100.87305999999998	417.05046	-126.76923999999998	119.71896999999998	406.33948	-87.58601999999999	13.55820999999999	499.89111	-89.07741999999998	177.47694	356.71644	-86.77253	
239	3.967	0.0	1250.06673	7.654451098075493E-14	33.624350000000014	1328.97549	129.61646000000007	82.97622999999999	1340.63555	-95.31419999999993	0.4067500000000131	1389.17394	106.83867000000008	42.03043999999999	1398.93584	-82.70506999999992	-58.70703999999999	1199.35903	34.302260000000075	-37.827400000000004	1204.23999	-60.469609999999925	-56.67331	1269.99729	-11.388889999999915	-25.89618	1360.83728	8.649861835033389E-14	19.79498	1470.52318	13.964950000000089	64.13032	1569.76926	26.43850000000009	308.31364	1652.47432	78.23086000000006	178.29043	1730.16285	53.82608000000008	119.04106	1662.23623	40.26788000000008	231.16744	1556.48222	60.334020000000066	222.08344	1776.26076	63.587990000000076	502.73833	1796.19132	70.90942000000005	401.32294	1785.7515	146.83539000000005	397.25548	1779.37915	2.30490000000006	391.8322	1838.89968	72.26525000000007	191.17073000000002	1739.6536	240.3870200000001	265.74087	1744.53455	-111.31287999999992	345.05638000000005	1483.2679	243.09866000000005	339.22635	1479.20043	180.45974000000007	431.01541	1504.01195	-133.95508999999998	401.32294	1476.48879	-85.68786999999996	513.5849	1294.40207	256.65687	545.44669	1325.04361	229.26929000000004	323.76999	1468.62503	227.50672000000006	632.49038	1351.21095	-123.24410999999999	639.1339	1367.34522	-74.16339	411.08485	1485.30163	-136.25997999999998	697.16303	1312.43448	258.69059999999996	623.2708	1280.57269	272.79113	559.00489	1290.74135	248.25078000000002	789.22326	1351.34654	-30.234800000000014	735.53275	1336.97484	-90.0265	666.52148	1341.44905	-97.34793	6.507940000000017	1221.86566	144.66607000000008	356.17411	1075.03027	127.17599000000003	364.30903	1087.91057	54.91074000000002	373.79978	1120.1791	96.94118000000003	41.759279999999976	1232.8478	-145.07281999999992	259.09734	922.22927	-125.00666999999997	254.35197	916.67041	-51.52118999999997	288.38307	945.27822	-81.89156999999997	394.40825	1042.62615	95.85653000000002	212.05036000000004	718.17825	127.04040000000002	217.88039	714.7887	68.33337000000002	286.34934	873.41972	-87.58601999999998	57.75795999999998	580.83361	-126.36248999999995	58.571459999999995	578.39313	-67.24870999999999	166.35921	639.54065	92.46697000000003	325.53256	615.54262	105.07611	303.2971	624.62662	177.61252	335.15889	617.1696	146.97097	202.01729	636.69342	103.72029000000002	407.15297	607.40769	170.29108999999997	-25.89618000000001	545.3111	-89.07741999999998	91.11115	441.18407	-49.894199999999984	86.63694999999998	434.81171	-125.82016999999999	104.66935999999998	423.15165	-86.50135999999999	2.7116399999999894	521.04191	-88.80625999999997	160.25801	371.08814	-85.41670999999998	
240	3.983	0.0	1250.06673	7.654451098075493E-14	33.624350000000014	1328.97549	129.61646000000007	82.97622999999999	1340.63555	-95.31419999999993	0.4067500000000131	1389.17394	106.97426000000009	42.03043999999999	1398.93584	-82.70506999999992	-58.70703999999999	1199.35903	34.302260000000075	-37.827400000000004	1204.23999	-60.469609999999925	-56.67331	1269.99729	-11.388889999999915	-25.89618	1360.97286	8.650692023098532E-14	19.79498	1470.52318	13.82937000000009	64.2659	1569.76926	26.167340000000088	308.5848	1652.20316	77.41736000000006	178.69717	1730.02727	53.283760000000086	119.17664	1662.23623	39.86113000000009	231.30302	1556.34663	59.79169000000007	222.49018	1776.12518	62.91008000000008	503.14508	1796.32691	69.68919000000005	401.86527	1785.88709	145.61515000000006	397.52664	1779.24356	1.2202400000000604	392.10336	1838.76409	71.04501000000008	191.71305000000004	1739.78918	239.8446900000001	266.01203	1744.39897	-111.85520999999991	345.46313000000004	1483.40348	242.14959000000005	339.76868	1479.4716	179.51067000000006	431.42216	1504.14753	-134.36183999999997	401.72969	1476.48879	-86.09461999999996	513.99164	1294.67323	256.25012	545.98901	1325.31478	228.86254000000002	324.31232	1468.76061	226.55765000000005	632.89712	1351.34654	-123.51526999999999	639.54065	1367.61639	-74.43456	411.35601	1485.30163	-136.66672999999997	697.56977	1313.24797	258.4194299999999	623.81312	1281.11502	272.51997	559.54722	1291.01251	247.84403000000003	789.63	1351.75328	-30.505970000000016	735.9395	1337.38158	-90.29766	666.92822	1341.72021	-97.61909	5.016540000000018	1220.10309	144.53049000000007	348.44593	1059.03158	127.71831000000003	357.52993	1072.58979	55.859810000000024	368.10533	1103.77367	98.29700000000003	42.84393999999998	1234.20362	-145.07281999999992	271.43531	931.72002	-125.41341999999997	266.55436	925.61882	-52.063519999999976	299.63638	955.58246	-82.02715999999998	389.66288	1028.25445	96.67002000000001	222.89693000000003	695.40046	125.27784000000001	229.13371	692.55324	66.57080000000002	295.7045	881.41907	-87.17926999999999	51.792349999999985	601.3065	-125.41341999999996	51.927929999999996	599.54393	-66.29962999999995	180.05299	615.54262	90.02650000000001	339.90426	596.83229	103.99145	316.71973	604.96722	176.2567	349.12384	598.59486	145.88630999999998	215.71108	613.91563	101.55097000000002	421.11792	591.27343	169.74875999999998	-33.48877000000002	569.44471	-89.34858999999997	79.04435	460.84347	-49.21628999999998	75.24804999999999	454.87786	-125.27783999999998	92.33138999999998	442.40431	-85.82344999999998	-5.8300300000000105	544.22645	-88.80625999999997	145.75073	388.30706	-84.33204999999998	
241	4.0	0.0	1250.06673	7.654451098075493E-14	33.759940000000014	1328.97549	129.61646000000007	82.84064999999998	1340.63555	-95.31419999999993	0.5423300000000131	1389.17394	106.97426000000009	42.03043999999999	1398.93584	-82.70506999999992	-58.571459999999995	1199.35903	34.302260000000075	-37.827400000000004	1204.23999	-60.469609999999925	-56.67331	1269.99729	-11.388889999999915	-25.89618	1360.97286	0.1355800000000865	19.93056	1470.52318	13.82937000000009	64.40149	1569.76926	26.031760000000087	308.99155	1652.06758	76.33271000000006	179.10392	1729.89169	52.47026000000009	119.58339	1662.23623	39.31880000000009	231.57418	1556.07547	59.11378000000006	223.03251	1775.98959	61.96101000000008	503.68741	1796.32691	67.92662000000006	402.67876	1785.7515	144.25933000000006	397.93339	1779.10798	-0.27115999999993984	392.51011	1838.76409	69.55360000000007	192.66213000000002	1740.19593	238.8956200000001	266.28319	1744.12781	-112.80428999999991	346.14104000000003	1483.53906	241.06493000000006	340.44659	1479.74276	178.42601000000005	431.55774	1504.01195	-134.90415999999996	402.00085	1476.48879	-86.63694999999996	514.12723	1294.67323	255.70779000000002	546.26018	1325.1792	228.45580000000004	324.85465	1469.03178	225.47299000000007	633.30387	1351.48212	-123.78642999999998	639.94739	1367.75197	-74.70572	411.62718	1485.16604	-137.20905999999997	697.84094	1314.06147	258.4194299999999	624.21987	1281.65735	272.24881	559.81839	1291.1481	247.57287000000002	789.90117	1352.02445	-30.641550000000013	736.34625	1337.51717	-90.43324	667.33497	1341.85579	-97.89026	3.2539700000000176	1218.20494	144.3949100000001	338.68402	1041.13475	128.26064000000002	349.12384	1055.0997	56.67331000000002	360.7839	1085.19892	99.65282000000003	43.65742999999998	1235.55945	-145.07281999999992	284.18003	942.431	-125.82016999999998	279.43466	935.92306	-52.47025999999998	311.43203	967.3781	-82.29831999999999	382.7482	1011.9846	97.48351000000001	230.35394000000002	672.21593	123.37969000000001	236.99747	669.77545	64.80823000000001	305.73758	891.18098	-87.17926999999999	48.67395999999999	623.13521	-124.73550999999996	48.267219999999995	621.64381	-65.62171999999995	189.95049	591.27343	87.45044000000001	350.07292	576.90173	102.36446999999998	326.21047	583.95199	174.62971	358.88575	578.66429	144.53048999999996	225.47299	590.45993	99.24608000000002	430.87983	573.10543	168.79967999999997	-38.09856000000001	594.12065	-89.48416999999996	70.23151	481.45195	-48.94512999999998	66.97753999999999	476.16425	-125.14224999999999	83.38297999999999	462.8772	-85.55228999999999	-11.253310000000011	567.95331	-88.80625999999997	134.90416	406.88181	-83.78971999999999	
